<svg version="1.1" id="Layer_1" xmlns="http://www.w3.org/2000/svg" xmlns:xlink="http://www.w3.org/1999/xlink" x="0px" y="0px"
	 width="100%" viewBox="0 0 1126 276" enable-background="new 0 0 1126 276" xml:space="preserve">
<path fill="#FEFEFE" opacity="1.000000" stroke="none" 
	d="
M824.000000,277.000000 
	C549.333313,277.000000 275.166656,277.000000 1.000000,277.000000 
	C1.000000,185.000000 1.000000,93.000000 1.000000,1.000000 
	C376.333344,1.000000 751.666687,1.000000 1127.000000,1.000000 
	C1127.000000,93.000000 1127.000000,185.000000 1127.000000,277.000000 
	C1026.166626,277.000000 925.333313,277.000000 824.000000,277.000000 
M145.436493,145.809204 
	C121.438370,145.809204 97.440239,145.809204 72.388290,145.809204 
	C73.888435,147.756699 74.642006,148.996048 75.640640,149.988953 
	C82.014801,156.326416 88.305725,162.757828 94.899147,168.861145 
	C99.673759,173.280838 102.259659,178.041046 102.128128,184.927231 
	C101.730751,205.733246 101.923706,226.552414 102.040779,247.365585 
	C102.096756,257.316772 108.107475,264.213287 118.023254,265.034363 
	C126.595390,265.744171 135.277985,266.052216 143.854584,265.554016 
	C156.252029,264.833862 162.221054,257.898773 162.217773,245.355362 
	C162.210663,218.214417 162.196075,191.073090 162.040726,163.932755 
	C161.982971,153.843994 156.282150,147.524460 145.436493,145.809204 
M206.505310,131.004929 
	C226.019974,131.004929 245.534637,131.004929 265.049286,131.004929 
	C264.314178,128.330551 263.232483,126.930641 261.997162,125.682854 
	C255.789658,119.412758 249.762405,112.939377 243.234634,107.019508 
	C238.509079,102.734032 236.698502,97.892769 236.767685,91.603928 
	C236.994766,70.961586 236.925125,50.314640 236.806534,29.670397 
	C236.743591,18.713392 230.061584,11.684075 219.295532,11.265784 
	C211.316650,10.955783 203.314133,10.902210 195.332184,11.113412 
	C185.610580,11.370646 177.138657,19.080009 177.075302,28.210430 
	C176.878937,56.511574 176.850494,84.816902 177.136093,113.116791 
	C177.242142,123.624405 185.362198,130.832504 196.018494,130.993423 
	C199.181122,131.041199 202.345047,131.003479 206.505310,131.004929 
M128.046387,71.106125 
	C105.741722,71.116852 83.436760,71.064156 61.132507,71.165558 
	C50.283634,71.214882 43.004936,78.606331 42.944706,89.356552 
	C42.903675,96.680191 43.525040,104.059959 42.823311,111.315308 
	C41.748711,122.425835 50.783112,130.956055 61.822662,130.975540 
	C89.120781,131.023758 116.420761,131.171112 143.716400,130.907181 
	C154.881577,130.799240 161.969116,123.123039 162.001556,112.098137 
	C162.064697,90.625854 162.039902,69.153267 162.013779,47.680862 
	C162.011932,46.172836 161.700272,44.665188 161.375229,41.740868 
	C152.884842,50.316078 145.579453,57.974331 137.925552,65.266808 
	C135.386612,67.685860 131.951614,69.164459 128.046387,71.106125 
M233.500000,145.852310 
	C221.172256,145.857513 208.843674,145.774811 196.517014,145.893356 
	C184.857773,146.005478 177.129959,153.732483 177.089584,165.369263 
	C177.015625,186.692429 177.080811,208.016144 177.124985,229.339554 
	C177.127869,230.727539 177.445602,232.114868 177.829315,235.223572 
	C185.733994,227.126572 192.858627,220.383896 199.307861,213.047485 
	C204.506470,207.133759 210.584442,205.073380 218.253143,205.179459 
	C238.073685,205.453644 257.901031,205.322144 277.725067,205.224228 
	C289.219513,205.167450 296.039795,198.348755 296.130615,187.007416 
	C296.194489,179.032349 295.968231,171.053131 296.138275,163.081436 
	C296.250031,157.842346 294.897156,153.145737 290.236053,150.707886 
	C285.974274,148.478882 281.140350,146.292557 276.471680,146.090042 
	C262.503967,145.484146 248.493668,145.859695 233.500000,145.852310 
M842.032349,94.470383 
	C842.032349,97.257957 842.032349,100.045532 842.032349,102.871056 
	C822.003601,102.871056 802.439392,102.871056 782.486450,102.871056 
	C782.486450,90.162033 782.486450,77.733437 782.486450,65.297989 
	C776.702148,65.297989 771.314087,65.297989 766.025696,65.297989 
	C766.025696,96.511368 766.025696,127.418587 766.025696,158.215485 
	C771.645630,158.215485 776.913391,158.215485 782.649536,158.215485 
	C782.649536,145.490204 782.649536,133.071793 782.649536,120.483383 
	C802.677002,120.483383 822.227600,120.483383 842.136841,120.483383 
	C842.136841,133.222580 842.136841,145.657791 842.136841,158.258331 
	C847.918030,158.258331 853.337769,158.258331 858.762756,158.258331 
	C858.762756,127.074295 858.762756,96.162941 858.762756,65.277603 
	C853.080627,65.277603 847.677368,65.277603 842.032532,65.277603 
	C842.032532,74.865128 842.032532,84.170181 842.032349,94.470383 
M521.813599,89.634521 
	C521.813599,94.393562 521.813599,99.152603 521.813599,104.167923 
	C523.371155,104.167923 524.348694,104.167793 525.326294,104.167953 
	C535.981506,104.169693 546.637695,104.081314 557.291504,104.205666 
	C564.145569,104.285660 567.091919,107.425186 567.108887,114.205704 
	C567.125183,120.698845 567.164490,127.192604 567.096680,133.685074 
	C567.043701,138.754028 564.035278,141.986115 558.879578,142.064087 
	C548.559998,142.220184 538.235229,142.207108 527.915222,142.066956 
	C523.679138,142.009445 520.704041,138.462082 521.271179,134.497162 
	C521.919739,129.963165 524.727905,127.970047 529.237000,127.992668 
	C539.016846,128.041733 548.797119,128.007782 558.679932,128.007782 
	C558.679932,122.390053 558.679932,117.179024 558.679932,111.973282 
	C547.545532,111.973282 536.732666,111.926643 525.921143,112.019707 
	C524.142151,112.035011 522.277039,112.420425 520.607178,113.048210 
	C509.619110,117.179192 503.713531,127.141769 505.297699,138.654556 
	C506.842499,149.881363 515.042908,157.762741 526.981262,158.234116 
	C538.773193,158.699722 550.617371,158.541107 562.412048,158.036011 
	C573.547668,157.559143 582.325806,149.071198 582.903625,138.081345 
	C583.435791,127.960228 583.337097,117.766258 582.812134,107.640900 
	C582.329590,98.334045 574.861267,90.003105 565.500916,89.132187 
	C553.953979,88.057816 542.284363,88.254143 530.665283,88.035370 
	C527.746582,87.980408 524.818115,88.437141 521.813599,89.634521 
M476.559479,104.464226 
	C480.687897,105.216812 482.518677,107.813385 482.339233,111.874565 
	C482.149139,116.177139 479.576935,118.348251 474.035645,118.428879 
	C464.407379,118.568962 454.775604,118.467804 445.186340,118.467804 
	C445.186340,124.205246 445.186340,129.422821 445.186340,134.816696 
	C455.561462,134.816696 465.552612,135.109497 475.519806,134.745682 
	C489.265778,134.243973 499.072083,123.944946 498.613953,111.083595 
	C498.118988,97.187798 488.660583,88.110855 474.443268,88.004395 
	C464.778351,87.932014 455.111755,87.913963 445.447266,88.009621 
	C431.458618,88.148056 422.411346,96.186569 421.552734,110.154167 
	C420.982239,119.434792 421.210175,128.820709 421.856567,138.105469 
	C422.633698,149.268738 430.607971,157.402756 441.818787,158.072144 
	C452.743256,158.724396 463.737152,158.213882 474.971436,158.213882 
	C474.971436,152.938965 474.971436,147.682098 474.971436,142.146713 
	C465.122925,142.146713 455.469421,142.189621 445.816528,142.130829 
	C439.896881,142.094788 437.695953,140.041199 437.541321,134.055084 
	C437.360626,127.060608 437.436676,120.057533 437.504089,113.059189 
	C437.565826,106.649208 439.816681,104.277084 446.225983,104.213463 
	C456.055634,104.115891 465.887543,104.241455 476.559479,104.464226 
M1028.748047,118.484528 
	C1026.804199,118.484528 1024.860352,118.484528 1022.857300,118.484528 
	C1022.857300,124.251877 1022.857300,129.451019 1022.857300,134.561386 
	C1034.064331,134.561386 1044.914795,135.149826 1055.673462,134.408173 
	C1068.306885,133.537247 1076.657227,123.300804 1076.244141,110.690331 
	C1075.819946,97.745193 1066.694580,88.342674 1053.829956,88.061020 
	C1043.013184,87.824196 1032.182007,87.833061 1021.365906,88.094154 
	C1010.218140,88.363251 1001.331726,95.044121 1000.161194,106.081703 
	C998.926880,117.721481 998.917725,129.708801 1000.235840,141.333115 
	C1001.298889,150.707581 1008.537659,156.952194 1017.908386,157.775620 
	C1029.427246,158.787811 1041.102905,158.017197 1052.692139,158.017197 
	C1052.692139,152.799393 1052.692139,147.577805 1052.692139,142.502899 
	C1052.187988,142.306931 1052.041016,142.200119 1051.893921,142.199753 
	C1042.570557,142.176880 1033.246948,142.194305 1023.923950,142.136734 
	C1017.524841,142.097198 1015.265137,139.876129 1015.181274,133.437454 
	C1015.094482,126.778770 1015.140198,120.117912 1015.173035,113.458237 
	C1015.205994,106.780830 1017.486328,104.295341 1024.057861,104.207977 
	C1033.213745,104.086258 1042.373657,104.097229 1051.529663,104.212379 
	C1057.508911,104.287560 1060.229492,106.748749 1060.122803,111.548111 
	C1060.020508,116.149139 1057.487915,118.330460 1051.668457,118.429253 
	C1044.344604,118.553558 1037.017334,118.475281 1028.748047,118.484528 
M731.851929,142.497528 
	C731.851929,147.743866 731.851929,152.990219 731.851929,158.089111 
	C737.915161,158.089111 743.283997,158.089111 748.761841,158.089111 
	C748.761841,144.661469 749.125793,131.667099 748.674988,118.701042 
	C748.028198,100.100052 735.547974,88.245049 716.915283,88.018471 
	C705.093811,87.874725 693.269165,87.967819 681.446045,87.999390 
	C673.547729,88.020477 670.663696,90.906250 670.649780,98.851952 
	C670.617126,117.502563 670.630249,136.153259 670.644165,154.803909 
	C670.644958,155.923370 670.814941,157.042709 670.905579,158.153992 
	C676.593384,158.153992 681.981873,158.153992 687.645996,158.153992 
	C687.645996,140.339661 687.645996,122.902580 687.645996,105.596809 
	C688.225464,105.323776 688.519287,105.065071 688.814026,105.063972 
	C697.806030,105.030464 706.798218,104.979568 715.790039,105.021217 
	C726.357849,105.070168 731.666504,110.339569 731.833801,121.016174 
	C731.940674,127.841965 731.852478,134.670822 731.851929,142.497528 
M409.852417,158.544525 
	C410.626495,157.785797 412.035980,157.054855 412.070557,156.263809 
	C412.279724,151.479065 412.174652,146.680573 412.174652,141.343781 
	C389.033142,141.343781 366.315887,141.343781 343.137634,141.343781 
	C343.137634,115.587700 343.137634,90.382698 343.137634,65.348961 
	C337.260498,65.348961 331.864197,65.348961 326.235168,65.348961 
	C326.235168,92.836815 326.217468,119.959068 326.245361,147.081284 
	C326.254425,155.876968 329.057343,158.551407 338.028961,158.551117 
	C361.673096,158.550339 385.317200,158.548004 409.852417,158.544525 
M961.721436,118.165298 
	C953.106262,129.683792 943.415894,139.561264 927.294556,140.864929 
	C927.294556,123.003159 927.294556,105.604828 927.294556,88.343750 
	C921.385437,88.343750 915.987854,88.343750 910.340027,88.343750 
	C910.340027,95.336243 910.339417,101.978844 910.340271,108.621452 
	C910.341858,121.946213 910.282593,135.271393 910.372559,148.595551 
	C910.416687,155.121979 913.725830,159.171677 919.436157,158.655594 
	C926.330994,158.032440 933.488220,157.352707 939.914551,155.006531 
	C971.044250,143.641510 983.975464,117.170044 994.588013,88.207344 
	C988.169983,88.207344 982.422729,88.207344 978.015625,88.207344 
	C972.467285,98.436180 967.282959,107.993904 961.721436,118.165298 
M597.311523,113.713531 
	C597.311523,128.486389 597.311523,143.259262 597.311523,158.187637 
	C603.245239,158.187637 608.617371,158.187637 614.259399,158.187637 
	C614.259399,143.701859 614.249207,129.561111 614.263123,115.420403 
	C614.271973,106.448509 615.713196,105.020271 624.722534,105.011963 
	C636.166260,105.001411 647.610046,105.009407 659.160706,105.009407 
	C659.160706,99.104065 659.160706,93.666794 659.160706,87.991295 
	C647.101135,87.991295 635.280823,87.963196 623.460632,87.998062 
	C606.902405,88.046898 598.288330,96.232903 597.311523,113.713531 
M894.028259,88.701675 
	C888.525513,88.378105 883.022766,88.054527 877.370361,87.722153 
	C877.370361,111.686646 877.370361,134.864136 877.370361,158.246475 
	C883.025269,158.246475 888.426697,158.246475 894.095398,158.246475 
	C894.095398,135.198761 894.095398,112.436310 894.028259,88.701675 
M692.997559,204.457062 
	C694.443237,207.988358 695.888977,211.519669 697.334656,215.050964 
	C697.906860,215.041336 698.479004,215.031723 699.051208,215.022095 
	C701.762939,207.929977 704.474731,200.837875 707.186523,193.745758 
	C707.998413,200.918823 707.907410,207.863480 708.095459,214.800537 
	C708.123962,215.852341 709.449341,216.868973 710.174744,217.901886 
	C710.781372,217.090881 711.905884,216.286209 711.915833,215.467941 
	C712.037170,205.509949 711.994629,195.549957 711.994629,185.575958 
	C708.468201,184.365250 706.717773,185.091873 705.642212,188.466278 
	C703.529175,195.095764 700.985962,201.588165 698.210815,209.272034 
	C695.469299,201.704605 693.023438,195.358612 690.892334,188.908630 
	C689.742493,185.428192 688.099792,183.832214 684.048523,185.840454 
	C684.048523,195.213379 683.972900,204.681229 684.139038,214.144836 
	C684.161194,215.404922 685.409790,216.643478 686.090393,217.892014 
	C686.743774,216.621063 687.927856,215.364273 687.962158,214.076813 
	C688.148376,207.094193 688.050537,200.103989 688.050537,193.116409 
	C688.321350,193.089218 688.592163,193.062027 688.862976,193.034851 
	C690.179871,196.588745 691.496704,200.142639 692.997559,204.457062 
M969.942322,213.285919 
	C970.661011,214.823196 971.379700,216.360474 972.098389,217.897736 
	C972.725586,216.431580 973.856018,214.978592 973.894775,213.497040 
	C974.083435,206.285233 973.980042,199.065796 973.980042,191.647949 
	C974.740723,192.963913 975.538330,194.337784 976.330322,195.714813 
	C980.136841,202.333328 983.827820,209.023361 987.848267,215.509247 
	C988.607361,216.733810 990.674927,217.147324 992.138794,217.935059 
	C992.730347,216.590240 993.807312,215.254974 993.833923,213.899017 
	C993.994385,205.752243 994.034546,197.597305 993.805420,189.453842 
	C993.762878,187.941681 992.311340,186.469177 991.510193,184.978363 
	C990.706360,186.467499 989.260254,187.934570 989.208191,189.449524 
	C988.962646,196.599838 989.098694,203.763260 989.098694,210.510422 
	C984.901489,203.261505 980.535889,195.475983 975.871399,187.873779 
	C974.942017,186.358902 972.870056,185.545013 971.324951,184.407883 
	C970.864014,184.773819 970.403137,185.139755 969.942261,185.505692 
	C969.942261,194.446899 969.942261,203.388107 969.942322,213.285919 
M941.089294,207.334686 
	C937.438232,201.005203 933.644287,194.752167 930.199341,188.312439 
	C928.589539,185.303329 926.817139,183.997894 923.114746,185.814453 
	C923.114746,195.073990 923.023804,204.461594 923.214111,213.843475 
	C923.242310,215.229782 924.600830,216.589127 925.343750,217.960938 
	C926.196777,216.535019 927.735718,215.133301 927.786987,213.679123 
	C928.041260,206.470810 927.902893,199.248627 927.902893,192.075058 
	C928.217529,192.613037 928.694397,193.412506 929.156189,194.220642 
	C933.194519,201.286560 937.142578,208.407013 941.350952,215.370087 
	C942.072083,216.563217 943.900513,217.087082 945.217407,217.920074 
	C945.835632,216.939285 946.975403,215.966492 946.990601,214.976471 
	C947.128479,205.994278 947.127075,197.008179 946.988342,188.025986 
	C946.973022,187.034805 945.843689,186.060837 945.231018,185.078888 
	C944.501526,186.111420 943.470581,187.053177 943.124878,188.201263 
	C942.757263,189.422134 943.037415,190.838501 943.037292,192.169510 
	C943.036682,197.813431 943.037048,203.457336 943.037048,210.064209 
	C942.004395,208.730148 941.708984,208.348465 941.089294,207.334686 
M602.063110,218.766617 
	C614.699341,217.008331 618.208923,199.191513 611.197754,189.731232 
	C606.140381,182.907120 596.900513,181.725815 591.152466,187.546463 
	C585.141113,193.633713 584.911560,201.312668 587.252563,208.970978 
	C589.285706,215.622131 594.466919,218.589783 602.063110,218.766617 
M749.918518,185.245087 
	C749.654663,185.648834 749.163940,186.050476 749.160156,186.456604 
	C749.071350,196.098755 748.978882,205.742020 749.086731,215.382843 
	C749.096252,216.227829 750.482788,217.057404 751.229736,217.894119 
	C751.821411,217.067703 752.878418,216.265991 752.923767,215.410583 
	C753.115112,211.805252 753.004761,208.183884 753.004761,204.716309 
	C757.245483,203.263474 759.883972,203.845673 761.478577,207.872818 
	C762.567749,210.623413 764.137939,213.269775 765.944763,215.614716 
	C766.892090,216.844147 768.811768,217.324402 770.292297,218.142990 
	C770.570557,217.688507 770.848877,217.234009 771.127197,216.779510 
	C768.736389,212.497955 766.345581,208.216385 763.958313,203.941177 
	C764.697754,203.385605 765.068665,203.060562 765.481995,202.803574 
	C769.924683,200.041443 771.936401,195.822128 770.699768,191.565674 
	C769.264648,186.626541 765.564392,184.953156 760.799133,184.953522 
	C757.473267,184.953766 754.147339,184.988281 749.918518,185.245087 
M915.585571,190.346039 
	C912.020691,184.675568 904.823486,183.092209 893.998108,185.825760 
	C893.998108,195.318649 893.935059,204.941925 894.083130,214.561966 
	C894.100342,215.680878 895.286743,216.781784 895.931091,217.891022 
	C896.642639,216.674850 897.853455,215.503769 897.968140,214.233688 
	C898.261230,210.988525 898.065857,207.699249 898.065857,204.690674 
	C902.557800,203.138672 905.071716,204.233597 906.631653,208.054337 
	C907.628113,210.495010 908.964294,212.893860 910.609131,214.941162 
	C911.839905,216.473114 913.806458,217.413986 915.445374,218.618042 
	C915.829041,218.150314 916.212708,217.682571 916.596375,217.214844 
	C914.080383,212.789368 911.564331,208.363907 908.904968,203.686234 
	C914.987854,201.303009 916.634888,196.830322 915.585571,190.346039 
M481.146729,217.591812 
	C481.554199,212.569916 481.961670,207.548019 482.380219,202.389679 
	C487.272034,202.389679 491.837128,202.389679 496.991394,202.389679 
	C496.991394,206.644348 496.850952,210.599289 497.078552,214.532959 
	C497.145233,215.685379 498.257751,216.777298 498.890900,217.896957 
	C499.615265,216.854263 500.948029,215.823227 500.968231,214.767059 
	C501.136902,205.953125 501.134857,197.133270 500.973907,188.319061 
	C500.953888,187.220917 499.705780,186.145218 499.026672,185.059097 
	C498.348785,186.138275 497.172028,187.179474 497.086426,188.303757 
	C496.827881,191.699738 496.993042,195.127991 496.993042,198.581390 
	C491.585541,198.581390 487.016541,198.581390 481.891327,198.581390 
	C481.891327,194.788177 482.077942,191.315964 481.777527,187.886383 
	C481.687469,186.858353 480.238373,185.949387 479.411865,184.985870 
	C478.625031,185.982422 477.175201,186.965820 477.155090,187.977600 
	C476.976654,196.957581 476.946075,205.945496 477.195984,214.922058 
	C477.224518,215.946457 479.243439,216.915451 481.146729,217.591812 
M1011.856384,213.962524 
	C1005.516113,210.215012 1003.202881,201.883026 1006.416199,194.367935 
	C1008.713928,188.993958 1013.989075,186.668182 1019.579956,188.349197 
	C1021.208313,188.838821 1023.016357,188.730453 1024.742065,188.896149 
	C1023.337585,187.523819 1022.076965,185.938492 1020.475952,184.856903 
	C1019.470947,184.177979 1017.961670,184.069962 1016.667114,184.022507 
	C1005.089539,183.598083 998.005920,195.399612 1001.775940,208.075104 
	C1004.886963,218.534637 1013.821228,219.501892 1022.173584,217.171188 
	C1023.701965,216.744720 1025.601807,214.631531 1025.811279,213.090500 
	C1026.334229,209.242798 1025.983521,205.276382 1025.983521,201.750275 
	C1021.839844,201.750275 1018.492737,201.750275 1015.145691,201.750275 
	C1015.117676,202.283188 1015.089661,202.816101 1015.061646,203.349014 
	C1017.278198,203.771362 1019.494751,204.193710 1021.620544,204.598770 
	C1022.812622,214.505661 1021.073730,216.297821 1011.856384,213.962524 
M431.028229,189.713226 
	C430.317505,188.166199 429.606750,186.619186 428.896027,185.072159 
	C428.252838,186.686935 427.228485,188.261108 427.051117,189.925522 
	C426.745331,192.794601 426.966431,195.719818 426.966431,198.483337 
	C421.150879,198.483337 416.272308,198.483337 411.075195,198.483337 
	C411.075195,194.879684 411.284821,191.714767 410.971527,188.602493 
	C410.847107,187.366531 409.563385,186.247269 408.807495,185.074890 
	C408.212128,186.236450 407.120819,187.389481 407.100677,188.560913 
	C406.952118,197.201874 406.947815,205.847733 407.098724,214.488525 
	C407.118683,215.630249 408.272614,216.752167 408.901337,217.883270 
	C409.625977,216.675705 410.887970,215.505676 410.975403,214.253601 
	C411.247803,210.355042 411.075226,206.425400 411.075226,202.444504 
	C416.746307,202.444504 421.624817,202.444504 426.969177,202.444504 
	C426.969177,206.617859 426.798279,210.421463 427.064545,214.194229 
	C427.154266,215.465942 428.353363,216.659378 429.045441,217.888596 
	C429.705811,216.628067 430.908783,215.379913 430.937836,214.105011 
	C431.115753,206.296799 431.027710,198.482544 431.028229,189.713226 
M738.976135,202.509979 
	C737.338562,197.642700 735.841370,192.720352 733.967468,187.945831 
	C733.483093,186.711578 731.723938,185.064529 730.717163,185.171844 
	C729.357056,185.316849 727.671387,186.723083 726.994751,188.036148 
	C725.716248,190.517197 725.031494,193.309067 724.146423,195.987122 
	C721.785767,203.130356 719.449707,210.281693 717.103882,217.429825 
	C717.683167,217.797974 718.262451,218.166122 718.841736,218.534271 
	C720.021240,217.085953 721.374695,215.743332 722.335693,214.162216 
	C723.497925,212.249939 723.964905,208.758499 725.375122,208.386688 
	C728.626587,207.529526 732.426453,207.558716 735.670715,208.446213 
	C736.999634,208.809769 737.614868,212.271942 738.290955,214.408020 
	C739.138489,217.085815 740.150208,219.115555 743.880371,217.276550 
	C742.321472,212.625244 740.754211,207.948898 738.976135,202.509979 
M668.571289,203.851440 
	C671.823853,205.498138 674.391846,207.815643 672.524780,211.680954 
	C670.812927,215.225128 667.546814,215.695343 663.979553,214.240036 
	C662.459229,213.619812 660.922058,212.918381 659.325562,212.645645 
	C658.012268,212.421280 656.600098,212.775482 655.231750,212.873260 
	C659.581055,217.676102 664.087708,219.259186 669.596252,218.106476 
	C674.304077,217.121353 677.289551,214.417877 677.680237,209.922134 
	C678.041199,205.769165 676.146545,202.319870 671.700378,200.689209 
	C668.755981,199.609314 665.779663,198.282150 663.292114,196.428848 
	C662.012146,195.475235 660.934753,192.919998 661.296692,191.470947 
	C661.649780,190.057495 663.842651,188.410278 665.427429,188.167145 
	C667.577026,187.837341 669.909424,188.802689 672.178040,189.101044 
	C673.329285,189.252472 674.512573,189.159622 675.681396,189.177185 
	C674.973328,188.061508 674.481323,186.263290 673.516724,185.957886 
	C670.597778,185.033752 667.442322,184.032394 664.477600,184.273453 
	C660.172729,184.623474 656.570984,187.529404 656.519592,191.834000 
	C656.486633,194.596237 658.756897,197.824219 660.848694,200.035614 
	C662.537292,201.820724 665.503418,202.397293 668.571289,203.851440 
M883.789795,214.689331 
	C884.326233,217.532501 885.750244,218.730606 888.942017,217.273178 
	C885.611084,207.307419 882.373474,197.408859 878.920105,187.586136 
	C878.535767,186.492935 877.020447,185.360306 875.850342,185.120499 
	C874.935913,184.933090 873.080139,185.862106 872.775635,186.704590 
	C869.094910,196.886414 865.625061,207.144424 862.100281,217.382599 
	C862.620911,217.773010 863.141602,218.163406 863.662231,218.553818 
	C864.829285,217.376724 866.259521,216.361023 867.102905,214.985474 
	C868.432922,212.816116 868.763306,209.324554 870.586975,208.303009 
	C875.638794,205.473221 881.734070,208.504486 883.789795,214.689331 
M455.912476,201.866150 
	C455.579285,200.902039 455.446350,199.279449 454.872986,199.105072 
	C453.498779,198.687149 451.917603,198.944031 450.419891,198.939056 
	C443.924133,198.917542 443.243652,198.072449 444.614410,191.626892 
	C444.846588,190.535202 445.194427,189.468124 445.731476,187.500641 
	C450.183197,187.500641 454.582123,187.500641 458.981018,187.500641 
	C458.965485,186.780624 458.949921,186.060623 458.934387,185.340607 
	C452.835144,184.546356 446.686707,184.931717 440.384644,185.203857 
	C440.384644,196.323135 440.384644,206.880859 440.384644,217.986374 
	C446.327698,217.986374 451.942902,218.061432 457.551361,217.901062 
	C458.343292,217.878433 459.102386,216.707352 459.876648,216.067825 
	C459.100800,215.422668 458.373291,214.306488 457.540039,214.220947 
	C455.069061,213.967331 452.531677,213.893387 450.065430,214.162918 
	C445.525024,214.659119 444.046143,212.989090 443.943909,208.315369 
	C443.830231,203.115204 445.610840,201.325241 450.561462,202.031128 
	C452.027435,202.240143 453.551880,202.038986 455.912476,201.866150 
M554.037537,206.583649 
	C553.567566,203.209290 554.805481,201.634445 558.418884,202.019562 
	C560.718384,202.264648 563.080017,202.189331 565.387024,201.973083 
	C566.304932,201.887054 567.150818,201.032883 568.029480,200.528412 
	C567.885681,200.013535 567.741882,199.498672 567.598022,198.983795 
	C563.244751,198.983795 558.891479,198.983795 554.406128,198.983795 
	C554.406128,195.000443 554.406128,191.787201 554.406128,188.060852 
	C557.383911,188.060852 560.010193,188.140228 562.629272,188.037735 
	C565.066956,187.942322 567.497009,187.653244 569.930420,187.449448 
	C569.869141,186.801575 569.807861,186.153717 569.746582,185.505844 
	C563.334351,185.505844 556.922180,185.505844 550.444214,185.505844 
	C550.444214,196.367737 550.444214,207.038574 550.444214,217.353027 
	C557.513306,217.353027 564.117493,217.353027 570.721741,217.353027 
	C570.760315,216.713593 570.798889,216.074158 570.837463,215.434738 
	C567.669861,215.251312 564.503784,214.947021 561.334412,214.908859 
	C554.045410,214.821045 554.044800,214.873611 554.037537,206.583649 
M877.106323,71.088066 
	C877.848755,71.907944 878.560120,73.401566 879.338684,73.437469 
	C884.111511,73.657585 888.899475,73.547676 893.839966,73.547676 
	C893.839966,68.236351 893.839966,63.362309 893.839966,58.454010 
	C888.169434,58.454010 882.794189,58.454010 877.104919,58.454010 
	C877.104919,62.577526 877.104919,66.371162 877.106323,71.088066 
M526.805786,194.791702 
	C525.973877,192.101852 525.330994,189.328491 524.201233,186.770142 
	C523.835449,185.941742 522.192749,185.677170 521.134155,185.154709 
	C520.820862,186.137711 520.019775,187.270752 520.268982,188.080704 
	C523.098022,197.276611 526.015503,206.447845 529.132385,215.549286 
	C529.492126,216.599838 531.191345,217.803482 532.285645,217.819244 
	C533.387695,217.835144 535.033020,216.698547 535.519043,215.642822 
	C536.686829,213.106079 537.313293,210.320343 538.161316,207.636078 
	C540.476562,200.307327 542.793396,192.979065 545.109558,185.650620 
	C544.508301,185.272003 543.907043,184.893387 543.305786,184.514771 
	C542.163330,185.972672 540.514160,187.262390 539.964966,188.917160 
	C537.402710,196.636902 535.144165,204.457443 532.371826,213.574631 
	C530.292542,206.644501 528.633057,201.113464 526.805786,194.791702 
M843.983093,204.750259 
	C844.138000,200.791824 847.190186,202.376038 849.194214,202.087524 
	C851.446838,201.763184 853.727722,201.635880 855.996338,201.422852 
	C855.950012,200.729401 855.903687,200.035950 855.857422,199.342499 
	C852.047974,199.093719 848.238586,198.844940 844.345032,198.590652 
	C844.345032,194.984787 844.345032,191.769653 844.345032,187.541748 
	C849.424438,187.541748 854.145752,187.541748 858.867065,187.541748 
	C858.848511,186.803772 858.829956,186.065781 858.811401,185.327805 
	C852.705750,184.541458 846.547852,184.994980 840.228516,185.130325 
	C840.228516,196.303116 840.228516,206.857971 840.228516,217.979233 
	C845.996887,217.979233 851.445190,218.088654 856.879150,217.858765 
	C857.674683,217.825104 858.401978,216.176376 859.288391,215.123383 
	C853.558411,214.706421 848.886780,214.366486 843.973328,214.008957 
	C843.973328,210.638367 843.973328,208.157043 843.983093,204.750259 
M779.503540,188.079010 
	C780.922546,188.214569 782.341492,188.350128 784.043762,188.512741 
	C784.043762,193.131210 784.042969,197.269821 784.043945,201.408447 
	C784.044983,205.725891 783.885193,210.053421 784.151733,214.354462 
	C784.228760,215.597931 785.532349,216.765381 786.273621,217.967682 
	C787.153381,216.735977 788.751892,215.528473 788.794312,214.268555 
	C789.040283,206.970276 789.048096,199.656403 788.863770,192.354691 
	C788.782959,189.158432 789.731445,187.780670 793.075867,188.012497 
	C794.981567,188.144577 796.932129,187.630203 799.807190,187.297668 
	C795.339783,184.074112 776.970398,184.225449 773.548401,187.408371 
	C775.648926,187.686478 777.125305,187.881958 779.503540,188.079010 
M626.007629,192.583221 
	C625.517822,189.184723 626.792847,187.723984 630.394592,188.012421 
	C633.842346,188.288528 637.329590,188.071991 642.074585,188.071991 
	C638.529724,184.570541 627.639282,184.065613 621.951294,186.008133 
	C621.951294,195.552292 621.883484,205.202805 622.050354,214.849258 
	C622.068115,215.875305 623.458801,216.877609 624.212585,217.890961 
	C624.808228,216.902084 625.862061,215.938187 625.917542,214.919861 
	C626.123108,211.148102 625.999390,207.358414 625.999390,203.294754 
	C630.670654,203.054779 634.756775,202.844849 638.842957,202.634933 
	C638.892334,201.893326 638.941772,201.151733 638.991211,200.410126 
	C634.820740,199.769516 630.650208,199.128906 626.226074,198.449341 
	C626.151611,196.769287 626.079407,195.139572 626.007629,192.583221 
M395.318604,184.951111 
	C389.236420,184.951111 383.154266,184.951111 377.072083,184.951111 
	C377.052307,185.776550 377.032532,186.601974 377.012787,187.427414 
	C380.178894,187.784851 383.345001,188.142303 386.948914,188.549179 
	C386.948914,190.774139 386.948547,192.731216 386.948975,194.688278 
	C386.950439,201.491180 386.876129,208.295929 387.041351,215.094864 
	C387.064331,216.040680 388.267853,216.957825 388.924896,217.888260 
	C389.614197,216.998291 390.625488,216.199661 390.910492,215.194992 
	C391.259247,213.965607 391.002228,212.563599 391.002380,211.236221 
	C391.003326,203.667435 391.002838,196.098648 391.002838,188.481644 
	C394.793274,188.107239 397.861206,187.804199 400.929169,187.501144 
	C400.943665,186.892715 400.958191,186.284271 400.972687,185.675827 
	C399.401947,185.434189 397.831207,185.192566 395.318604,184.951111 
M824.482178,218.004318 
	C827.532166,218.004318 830.582092,218.004318 833.632080,218.004318 
	C833.706970,217.370102 833.781860,216.735886 833.856689,216.101685 
	C830.047974,211.505157 823.787354,216.044937 819.026855,213.042618 
	C819.026855,211.316757 819.027466,209.352051 819.026794,207.387344 
	C819.024597,200.902054 819.100647,194.414749 818.934448,187.933640 
	C818.909546,186.964066 817.747131,186.023697 817.110962,185.069824 
	C816.411743,185.785950 815.113220,186.494156 815.103577,187.219421 
	C814.970154,197.300964 815.013306,207.384827 815.013306,218.004074 
	C818.278809,218.004074 820.896790,218.004074 824.482178,218.004318 
M960.735229,216.933380 
	C960.808655,207.449265 960.965088,197.964157 960.849854,188.482315 
	C960.835510,187.304703 959.378967,186.144608 958.590698,184.976410 
	C957.748779,186.094452 956.202881,187.196320 956.176819,188.333069 
	C955.974304,197.152786 956.104187,205.979492 956.044189,214.803452 
	C956.022583,217.979141 957.569214,218.512024 960.735229,216.933380 
M510.799652,217.605331 
	C513.929260,218.735489 515.019348,217.495316 514.984436,214.338669 
	C514.888855,205.681778 515.044556,197.020981 514.843628,188.367706 
	C514.816895,187.217621 513.300049,186.102127 512.473328,184.970627 
	C511.669373,186.127441 510.183990,187.275558 510.169067,188.442444 
	C510.047852,197.924759 510.201935,207.410599 510.799652,217.605331 
z"/>
<path fill="#6EA5EE" opacity="1.000000" stroke="none" 
	d="
M145.868591,145.835022 
	C156.282150,147.524460 161.982971,153.843994 162.040726,163.932755 
	C162.196075,191.073090 162.210663,218.214417 162.217773,245.355362 
	C162.221054,257.898773 156.252029,264.833862 143.854584,265.554016 
	C135.277985,266.052216 126.595390,265.744171 118.023254,265.034363 
	C108.107475,264.213287 102.096756,257.316772 102.040779,247.365585 
	C101.923706,226.552414 101.730751,205.733246 102.128128,184.927231 
	C102.259659,178.041046 99.673759,173.280838 94.899147,168.861145 
	C88.305725,162.757828 82.014801,156.326416 75.640640,149.988953 
	C74.642006,148.996048 73.888435,147.756699 72.388290,145.809204 
	C97.440239,145.809204 121.438370,145.809204 145.868591,145.835022 
z"/>
<path fill="#DB542F" opacity="1.000000" stroke="none" 
	d="
M206.006836,131.004929 
	C202.345047,131.003479 199.181122,131.041199 196.018494,130.993423 
	C185.362198,130.832504 177.242142,123.624405 177.136093,113.116791 
	C176.850494,84.816902 176.878937,56.511574 177.075302,28.210430 
	C177.138657,19.080009 185.610580,11.370646 195.332184,11.113412 
	C203.314133,10.902210 211.316650,10.955783 219.295532,11.265784 
	C230.061584,11.684075 236.743591,18.713392 236.806534,29.670397 
	C236.925125,50.314640 236.994766,70.961586 236.767685,91.603928 
	C236.698502,97.892769 238.509079,102.734032 243.234634,107.019508 
	C249.762405,112.939377 255.789658,119.412758 261.997162,125.682854 
	C263.232483,126.930641 264.314178,128.330551 265.049286,131.004929 
	C245.534637,131.004929 226.019974,131.004929 206.006836,131.004929 
z"/>
<path fill="#5FBEC7" opacity="1.000000" stroke="none" 
	d="
M128.486328,71.089577 
	C131.951614,69.164459 135.386612,67.685860 137.925552,65.266808 
	C145.579453,57.974331 152.884842,50.316078 161.375229,41.740868 
	C161.700272,44.665188 162.011932,46.172836 162.013779,47.680862 
	C162.039902,69.153267 162.064697,90.625854 162.001556,112.098137 
	C161.969116,123.123039 154.881577,130.799240 143.716400,130.907181 
	C116.420761,131.171112 89.120781,131.023758 61.822662,130.975540 
	C50.783112,130.956055 41.748711,122.425835 42.823311,111.315308 
	C43.525040,104.059959 42.903675,96.680191 42.944706,89.356552 
	C43.004936,78.606331 50.283634,71.214882 61.132507,71.165558 
	C83.436760,71.064156 105.741722,71.116852 128.486328,71.089577 
z"/>
<path fill="#EAB346" opacity="1.000000" stroke="none" 
	d="
M234.000000,145.852188 
	C248.493668,145.859695 262.503967,145.484146 276.471680,146.090042 
	C281.140350,146.292557 285.974274,148.478882 290.236053,150.707886 
	C294.897156,153.145737 296.250031,157.842346 296.138275,163.081436 
	C295.968231,171.053131 296.194489,179.032349 296.130615,187.007416 
	C296.039795,198.348755 289.219513,205.167450 277.725067,205.224228 
	C257.901031,205.322144 238.073685,205.453644 218.253143,205.179459 
	C210.584442,205.073380 204.506470,207.133759 199.307861,213.047485 
	C192.858627,220.383896 185.733994,227.126572 177.829315,235.223572 
	C177.445602,232.114868 177.127869,230.727539 177.124985,229.339554 
	C177.080811,208.016144 177.015625,186.692429 177.089584,165.369263 
	C177.129959,153.732483 184.857773,146.005478 196.517014,145.893356 
	C208.843674,145.774811 221.172256,145.857513 234.000000,145.852188 
z"/>
<path fill="#040404" opacity="1.000000" stroke="none" 
	d="
M842.032471,93.972809 
	C842.032532,84.170181 842.032532,74.865128 842.032532,65.277603 
	C847.677368,65.277603 853.080627,65.277603 858.762756,65.277603 
	C858.762756,96.162941 858.762756,127.074295 858.762756,158.258331 
	C853.337769,158.258331 847.918030,158.258331 842.136841,158.258331 
	C842.136841,145.657791 842.136841,133.222580 842.136841,120.483383 
	C822.227600,120.483383 802.677002,120.483383 782.649536,120.483383 
	C782.649536,133.071793 782.649536,145.490204 782.649536,158.215485 
	C776.913391,158.215485 771.645630,158.215485 766.025696,158.215485 
	C766.025696,127.418587 766.025696,96.511368 766.025696,65.297989 
	C771.314087,65.297989 776.702148,65.297989 782.486450,65.297989 
	C782.486450,77.733437 782.486450,90.162033 782.486450,102.871056 
	C802.439392,102.871056 822.003601,102.871056 842.032349,102.871056 
	C842.032349,100.045532 842.032349,97.257957 842.032471,93.972809 
z"/>
<path fill="#040404" opacity="1.000000" stroke="none" 
	d="
M521.853882,89.146622 
	C524.818115,88.437141 527.746582,87.980408 530.665283,88.035370 
	C542.284363,88.254143 553.953979,88.057816 565.500916,89.132187 
	C574.861267,90.003105 582.329590,98.334045 582.812134,107.640900 
	C583.337097,117.766258 583.435791,127.960228 582.903625,138.081345 
	C582.325806,149.071198 573.547668,157.559143 562.412048,158.036011 
	C550.617371,158.541107 538.773193,158.699722 526.981262,158.234116 
	C515.042908,157.762741 506.842499,149.881363 505.297699,138.654556 
	C503.713531,127.141769 509.619110,117.179192 520.607178,113.048210 
	C522.277039,112.420425 524.142151,112.035011 525.921143,112.019707 
	C536.732666,111.926643 547.545532,111.973282 558.679932,111.973282 
	C558.679932,117.179024 558.679932,122.390053 558.679932,128.007782 
	C548.797119,128.007782 539.016846,128.041733 529.237000,127.992668 
	C524.727905,127.970047 521.919739,129.963165 521.271179,134.497162 
	C520.704041,138.462082 523.679138,142.009445 527.915222,142.066956 
	C538.235229,142.207108 548.559998,142.220184 558.879578,142.064087 
	C564.035278,141.986115 567.043701,138.754028 567.096680,133.685074 
	C567.164490,127.192604 567.125183,120.698845 567.108887,114.205704 
	C567.091919,107.425186 564.145569,104.285660 557.291504,104.205666 
	C546.637695,104.081314 535.981506,104.169693 525.326294,104.167953 
	C524.348694,104.167793 523.371155,104.167923 521.813599,104.167923 
	C521.813599,99.152603 521.813599,94.393562 521.853882,89.146622 
z"/>
<path fill="#050505" opacity="1.000000" stroke="none" 
	d="
M476.138977,104.368271 
	C465.887543,104.241455 456.055634,104.115891 446.225983,104.213463 
	C439.816681,104.277084 437.565826,106.649208 437.504089,113.059189 
	C437.436676,120.057533 437.360626,127.060608 437.541321,134.055084 
	C437.695953,140.041199 439.896881,142.094788 445.816528,142.130829 
	C455.469421,142.189621 465.122925,142.146713 474.971436,142.146713 
	C474.971436,147.682098 474.971436,152.938965 474.971436,158.213882 
	C463.737152,158.213882 452.743256,158.724396 441.818787,158.072144 
	C430.607971,157.402756 422.633698,149.268738 421.856567,138.105469 
	C421.210175,128.820709 420.982239,119.434792 421.552734,110.154167 
	C422.411346,96.186569 431.458618,88.148056 445.447266,88.009621 
	C455.111755,87.913963 464.778351,87.932014 474.443268,88.004395 
	C488.660583,88.110855 498.118988,97.187798 498.613953,111.083595 
	C499.072083,123.944946 489.265778,134.243973 475.519806,134.745682 
	C465.552612,135.109497 455.561462,134.816696 445.186340,134.816696 
	C445.186340,129.422821 445.186340,124.205246 445.186340,118.467804 
	C454.775604,118.467804 464.407379,118.568962 474.035645,118.428879 
	C479.576935,118.348251 482.149139,116.177139 482.339233,111.874565 
	C482.518677,107.813385 480.687897,105.216812 476.138977,104.368271 
z"/>
<path fill="#050505" opacity="1.000000" stroke="none" 
	d="
M1029.219727,118.484467 
	C1037.017334,118.475281 1044.344604,118.553558 1051.668457,118.429253 
	C1057.487915,118.330460 1060.020508,116.149139 1060.122803,111.548111 
	C1060.229492,106.748749 1057.508911,104.287560 1051.529663,104.212379 
	C1042.373657,104.097229 1033.213745,104.086258 1024.057861,104.207977 
	C1017.486328,104.295341 1015.205994,106.780830 1015.173035,113.458237 
	C1015.140198,120.117912 1015.094482,126.778770 1015.181274,133.437454 
	C1015.265137,139.876129 1017.524841,142.097198 1023.923950,142.136734 
	C1033.246948,142.194305 1042.570557,142.176880 1051.893921,142.199753 
	C1052.041016,142.200119 1052.187988,142.306931 1052.692139,142.502899 
	C1052.692139,147.577805 1052.692139,152.799393 1052.692139,158.017197 
	C1041.102905,158.017197 1029.427246,158.787811 1017.908386,157.775620 
	C1008.537659,156.952194 1001.298889,150.707581 1000.235840,141.333115 
	C998.917725,129.708801 998.926880,117.721481 1000.161194,106.081703 
	C1001.331726,95.044121 1010.218140,88.363251 1021.365906,88.094154 
	C1032.182007,87.833061 1043.013184,87.824196 1053.829956,88.061020 
	C1066.694580,88.342674 1075.819946,97.745193 1076.244141,110.690331 
	C1076.657227,123.300804 1068.306885,133.537247 1055.673462,134.408173 
	C1044.914795,135.149826 1034.064331,134.561386 1022.857300,134.561386 
	C1022.857300,129.451019 1022.857300,124.251877 1022.857300,118.484528 
	C1024.860352,118.484528 1026.804199,118.484528 1029.219727,118.484467 
z"/>
<path fill="#050505" opacity="1.000000" stroke="none" 
	d="
M731.851868,141.997910 
	C731.852478,134.670822 731.940674,127.841965 731.833801,121.016174 
	C731.666504,110.339569 726.357849,105.070168 715.790039,105.021217 
	C706.798218,104.979568 697.806030,105.030464 688.814026,105.063972 
	C688.519287,105.065071 688.225464,105.323776 687.645996,105.596809 
	C687.645996,122.902580 687.645996,140.339661 687.645996,158.153992 
	C681.981873,158.153992 676.593384,158.153992 670.905579,158.153992 
	C670.814941,157.042709 670.644958,155.923370 670.644165,154.803909 
	C670.630249,136.153259 670.617126,117.502563 670.649780,98.851952 
	C670.663696,90.906250 673.547729,88.020477 681.446045,87.999390 
	C693.269165,87.967819 705.093811,87.874725 716.915283,88.018471 
	C735.547974,88.245049 748.028198,100.100052 748.674988,118.701042 
	C749.125793,131.667099 748.761841,144.661469 748.761841,158.089111 
	C743.283997,158.089111 737.915161,158.089111 731.851929,158.089111 
	C731.851929,152.990219 731.851929,147.743866 731.851868,141.997910 
z"/>
<path fill="#0A0A0A" opacity="1.000000" stroke="none" 
	d="
M409.406860,158.545410 
	C385.317200,158.548004 361.673096,158.550339 338.028961,158.551117 
	C329.057343,158.551407 326.254425,155.876968 326.245361,147.081284 
	C326.217468,119.959068 326.235168,92.836815 326.235168,65.348961 
	C331.864197,65.348961 337.260498,65.348961 343.137634,65.348961 
	C343.137634,90.382698 343.137634,115.587700 343.137634,141.343781 
	C366.315887,141.343781 389.033142,141.343781 412.174652,141.343781 
	C412.174652,146.680573 412.279724,151.479065 412.070557,156.263809 
	C412.035980,157.054855 410.626495,157.785797 409.406860,158.545410 
z"/>
<path fill="#050505" opacity="1.000000" stroke="none" 
	d="
M961.910034,117.858459 
	C967.282959,107.993904 972.467285,98.436180 978.015625,88.207344 
	C982.422729,88.207344 988.169983,88.207344 994.588013,88.207344 
	C983.975464,117.170044 971.044250,143.641510 939.914551,155.006531 
	C933.488220,157.352707 926.330994,158.032440 919.436157,158.655594 
	C913.725830,159.171677 910.416687,155.121979 910.372559,148.595551 
	C910.282593,135.271393 910.341858,121.946213 910.340271,108.621452 
	C910.339417,101.978844 910.340027,95.336243 910.340027,88.343750 
	C915.987854,88.343750 921.385437,88.343750 927.294556,88.343750 
	C927.294556,105.604828 927.294556,123.003159 927.294556,140.864929 
	C943.415894,139.561264 953.106262,129.683792 961.910034,117.858459 
z"/>
<path fill="#050505" opacity="1.000000" stroke="none" 
	d="
M597.313965,113.244354 
	C598.288330,96.232903 606.902405,88.046898 623.460632,87.998062 
	C635.280823,87.963196 647.101135,87.991295 659.160706,87.991295 
	C659.160706,93.666794 659.160706,99.104065 659.160706,105.009407 
	C647.610046,105.009407 636.166260,105.001411 624.722534,105.011963 
	C615.713196,105.020271 614.271973,106.448509 614.263123,115.420403 
	C614.249207,129.561111 614.259399,143.701859 614.259399,158.187637 
	C608.617371,158.187637 603.245239,158.187637 597.311523,158.187637 
	C597.311523,143.259262 597.311523,128.486389 597.313965,113.244354 
z"/>
<path fill="#050505" opacity="1.000000" stroke="none" 
	d="
M894.061829,89.187767 
	C894.095398,112.436310 894.095398,135.198761 894.095398,158.246475 
	C888.426697,158.246475 883.025269,158.246475 877.370361,158.246475 
	C877.370361,134.864136 877.370361,111.686646 877.370361,87.722153 
	C883.022766,88.054527 888.525513,88.378105 894.061829,89.187767 
z"/>
<path fill="#C6C6C6" opacity="1.000000" stroke="none" 
	d="
M692.905579,204.076797 
	C691.496704,200.142639 690.179871,196.588745 688.862976,193.034851 
	C688.592163,193.062027 688.321350,193.089218 688.050537,193.116409 
	C688.050537,200.103989 688.148376,207.094193 687.962158,214.076813 
	C687.927856,215.364273 686.743774,216.621063 686.090393,217.892014 
	C685.409790,216.643478 684.161194,215.404922 684.139038,214.144836 
	C683.972900,204.681229 684.048523,195.213379 684.048523,185.840454 
	C688.099792,183.832214 689.742493,185.428192 690.892334,188.908630 
	C693.023438,195.358612 695.469299,201.704605 698.210815,209.272034 
	C700.985962,201.588165 703.529175,195.095764 705.642212,188.466278 
	C706.717773,185.091873 708.468201,184.365250 711.994629,185.575958 
	C711.994629,195.549957 712.037170,205.509949 711.915833,215.467941 
	C711.905884,216.286209 710.781372,217.090881 710.174744,217.901886 
	C709.449341,216.868973 708.123962,215.852341 708.095459,214.800537 
	C707.907410,207.863480 707.998413,200.918823 707.186523,193.745758 
	C704.474731,200.837875 701.762939,207.929977 699.051208,215.022095 
	C698.479004,215.031723 697.906860,215.041336 697.334656,215.050964 
	C695.888977,211.519669 694.443237,207.988358 692.905579,204.076797 
z"/>
<path fill="#C8C8C8" opacity="1.000000" stroke="none" 
	d="
M969.942261,212.807617 
	C969.942261,203.388107 969.942261,194.446899 969.942261,185.505692 
	C970.403137,185.139755 970.864014,184.773819 971.324951,184.407883 
	C972.870056,185.545013 974.942017,186.358902 975.871399,187.873779 
	C980.535889,195.475983 984.901489,203.261505 989.098694,210.510422 
	C989.098694,203.763260 988.962646,196.599838 989.208191,189.449524 
	C989.260254,187.934570 990.706360,186.467499 991.510193,184.978363 
	C992.311340,186.469177 993.762878,187.941681 993.805420,189.453842 
	C994.034546,197.597305 993.994385,205.752243 993.833923,213.899017 
	C993.807312,215.254974 992.730347,216.590240 992.138794,217.935059 
	C990.674927,217.147324 988.607361,216.733810 987.848267,215.509247 
	C983.827820,209.023361 980.136841,202.333328 976.330322,195.714813 
	C975.538330,194.337784 974.740723,192.963913 973.980042,191.647949 
	C973.980042,199.065796 974.083435,206.285233 973.894775,213.497040 
	C973.856018,214.978592 972.725586,216.431580 972.098389,217.897736 
	C971.379700,216.360474 970.661011,214.823196 969.942261,212.807617 
z"/>
<path fill="#C6C6C6" opacity="1.000000" stroke="none" 
	d="
M941.251465,207.650726 
	C941.708984,208.348465 942.004395,208.730148 943.037048,210.064209 
	C943.037048,203.457336 943.036682,197.813431 943.037292,192.169510 
	C943.037415,190.838501 942.757263,189.422134 943.124878,188.201263 
	C943.470581,187.053177 944.501526,186.111420 945.231018,185.078888 
	C945.843689,186.060837 946.973022,187.034805 946.988342,188.025986 
	C947.127075,197.008179 947.128479,205.994278 946.990601,214.976471 
	C946.975403,215.966492 945.835632,216.939285 945.217407,217.920074 
	C943.900513,217.087082 942.072083,216.563217 941.350952,215.370087 
	C937.142578,208.407013 933.194519,201.286560 929.156189,194.220642 
	C928.694397,193.412506 928.217529,192.613037 927.902893,192.075058 
	C927.902893,199.248627 928.041260,206.470810 927.786987,213.679123 
	C927.735718,215.133301 926.196777,216.535019 925.343750,217.960938 
	C924.600830,216.589127 923.242310,215.229782 923.214111,213.843475 
	C923.023804,204.461594 923.114746,195.073990 923.114746,185.814453 
	C926.817139,183.997894 928.589539,185.303329 930.199341,188.312439 
	C933.644287,194.752167 937.438232,201.005203 941.251465,207.650726 
z"/>
<path fill="#C6C6C6" opacity="1.000000" stroke="none" 
	d="
M601.670776,218.815704 
	C594.466919,218.589783 589.285706,215.622131 587.252563,208.970978 
	C584.911560,201.312668 585.141113,193.633713 591.152466,187.546463 
	C596.900513,181.725815 606.140381,182.907120 611.197754,189.731232 
	C618.208923,199.191513 614.699341,217.008331 601.670776,218.815704 
M609.999146,199.692245 
	C609.744873,198.236908 609.565613,196.763626 609.222473,195.329559 
	C608.128662,190.758347 605.248779,188.216141 600.505310,188.005768 
	C595.225281,187.771622 592.198975,191.109116 591.499573,195.571869 
	C590.831055,199.837402 590.848694,204.730850 592.375061,208.641785 
	C593.438477,211.366714 597.404175,214.201431 600.361816,214.551804 
	C602.730591,214.832382 606.290161,211.961090 607.928894,209.544434 
	C609.537903,207.171661 609.390747,203.608047 609.999146,199.692245 
z"/>
<path fill="#C4C4C4" opacity="1.000000" stroke="none" 
	d="
M750.369995,185.126282 
	C754.147339,184.988281 757.473267,184.953766 760.799133,184.953522 
	C765.564392,184.953156 769.264648,186.626541 770.699768,191.565674 
	C771.936401,195.822128 769.924683,200.041443 765.481995,202.803574 
	C765.068665,203.060562 764.697754,203.385605 763.958313,203.941177 
	C766.345581,208.216385 768.736389,212.497955 771.127197,216.779510 
	C770.848877,217.234009 770.570557,217.688507 770.292297,218.142990 
	C768.811768,217.324402 766.892090,216.844147 765.944763,215.614716 
	C764.137939,213.269775 762.567749,210.623413 761.478577,207.872818 
	C759.883972,203.845673 757.245483,203.263474 753.004761,204.716309 
	C753.004761,208.183884 753.115112,211.805252 752.923767,215.410583 
	C752.878418,216.265991 751.821411,217.067703 751.229736,217.894135 
	C750.482788,217.057404 749.096252,216.227829 749.086731,215.382843 
	C748.978882,205.742020 749.071350,196.098755 749.160156,186.456604 
	C749.163940,186.050476 749.654663,185.648834 750.369995,185.126282 
M763.380981,199.317902 
	C766.666809,197.243988 767.804199,194.414673 765.903137,190.902039 
	C764.199707,187.754456 758.978455,187.050293 753.011841,189.037308 
	C753.011841,190.761734 752.979614,192.579422 753.020935,194.395432 
	C753.061157,196.161224 753.176636,197.925308 753.282898,200.200974 
	C756.747070,200.004837 759.685852,199.838455 763.380981,199.317902 
z"/>
<path fill="#C4C4C4" opacity="1.000000" stroke="none" 
	d="
M915.719666,190.731110 
	C916.634888,196.830322 914.987854,201.303009 908.904968,203.686234 
	C911.564331,208.363907 914.080383,212.789368 916.596375,217.214844 
	C916.212708,217.682571 915.829041,218.150314 915.445374,218.618042 
	C913.806458,217.413986 911.839905,216.473114 910.609131,214.941162 
	C908.964294,212.893860 907.628113,210.495010 906.631653,208.054337 
	C905.071716,204.233597 902.557800,203.138672 898.065857,204.690674 
	C898.065857,207.699249 898.261230,210.988525 897.968140,214.233688 
	C897.853455,215.503769 896.642639,216.674850 895.931091,217.891037 
	C895.286743,216.781784 894.100342,215.680878 894.083130,214.561966 
	C893.935059,204.941925 893.998108,195.318649 893.998108,185.825760 
	C904.823486,183.092209 912.020691,184.675568 915.719666,190.731110 
M898.080627,198.014542 
	C900.037415,203.708633 904.093018,200.272141 907.192505,199.876404 
	C910.719055,199.426132 912.472656,196.360428 911.718079,193.341568 
	C911.210571,191.311371 908.744263,189.065018 906.653809,188.320724 
	C904.217896,187.453430 901.236450,188.118317 898.055359,188.118317 
	C898.055359,191.554077 898.055359,194.339371 898.080627,198.014542 
z"/>
<path fill="#C6C6C6" opacity="1.000000" stroke="none" 
	d="
M480.743103,217.750977 
	C479.243439,216.915451 477.224518,215.946457 477.195984,214.922058 
	C476.946075,205.945496 476.976654,196.957581 477.155090,187.977600 
	C477.175201,186.965820 478.625031,185.982422 479.411865,184.985870 
	C480.238373,185.949387 481.687469,186.858353 481.777527,187.886383 
	C482.077942,191.315964 481.891327,194.788177 481.891327,198.581390 
	C487.016541,198.581390 491.585541,198.581390 496.993042,198.581390 
	C496.993042,195.127991 496.827881,191.699738 497.086426,188.303757 
	C497.172028,187.179474 498.348785,186.138275 499.026672,185.059113 
	C499.705780,186.145218 500.953888,187.220917 500.973907,188.319061 
	C501.134857,197.133270 501.136902,205.953125 500.968231,214.767059 
	C500.948029,215.823227 499.615265,216.854263 498.890900,217.896957 
	C498.257751,216.777298 497.145233,215.685379 497.078552,214.532959 
	C496.850952,210.599289 496.991394,206.644348 496.991394,202.389679 
	C491.837128,202.389679 487.272034,202.389679 482.380219,202.389679 
	C481.961670,207.548019 481.554199,212.569916 480.743103,217.750977 
z"/>
<path fill="#C5C5C5" opacity="1.000000" stroke="none" 
	d="
M1012.219299,214.113464 
	C1021.073730,216.297821 1022.812622,214.505661 1021.620544,204.598770 
	C1019.494751,204.193710 1017.278198,203.771362 1015.061646,203.349014 
	C1015.089661,202.816101 1015.117676,202.283188 1015.145691,201.750275 
	C1018.492737,201.750275 1021.839844,201.750275 1025.983521,201.750275 
	C1025.983521,205.276382 1026.334229,209.242798 1025.811279,213.090500 
	C1025.601807,214.631531 1023.701965,216.744720 1022.173584,217.171188 
	C1013.821228,219.501892 1004.886963,218.534637 1001.775940,208.075104 
	C998.005920,195.399612 1005.089539,183.598083 1016.667114,184.022507 
	C1017.961670,184.069962 1019.470947,184.177979 1020.475952,184.856903 
	C1022.076965,185.938492 1023.337585,187.523819 1024.742065,188.896179 
	C1023.016357,188.730453 1021.208313,188.838821 1019.579956,188.349197 
	C1013.989075,186.668182 1008.713928,188.993958 1006.416199,194.367935 
	C1003.202881,201.883026 1005.516113,210.215012 1012.219299,214.113464 
z"/>
<path fill="#C3C3C3" opacity="1.000000" stroke="none" 
	d="
M431.028259,190.191757 
	C431.027710,198.482544 431.115753,206.296799 430.937836,214.105011 
	C430.908783,215.379913 429.705811,216.628067 429.045441,217.888596 
	C428.353363,216.659378 427.154266,215.465942 427.064545,214.194229 
	C426.798279,210.421463 426.969177,206.617859 426.969177,202.444504 
	C421.624817,202.444504 416.746307,202.444504 411.075226,202.444504 
	C411.075226,206.425400 411.247803,210.355042 410.975403,214.253601 
	C410.887970,215.505676 409.625977,216.675705 408.901337,217.883270 
	C408.272614,216.752167 407.118683,215.630249 407.098724,214.488525 
	C406.947815,205.847733 406.952118,197.201874 407.100677,188.560913 
	C407.120819,187.389481 408.212128,186.236450 408.807495,185.074890 
	C409.563385,186.247269 410.847107,187.366531 410.971527,188.602493 
	C411.284821,191.714767 411.075195,194.879684 411.075195,198.483337 
	C416.272308,198.483337 421.150879,198.483337 426.966431,198.483337 
	C426.966431,195.719818 426.745331,192.794601 427.051117,189.925522 
	C427.228485,188.261108 428.252838,186.686935 428.896027,185.072159 
	C429.606750,186.619186 430.317505,188.166199 431.028259,190.191757 
z"/>
<path fill="#C6C6C6" opacity="1.000000" stroke="none" 
	d="
M739.081543,202.891266 
	C740.754211,207.948898 742.321472,212.625244 743.880371,217.276550 
	C740.150208,219.115555 739.138489,217.085815 738.290955,214.408020 
	C737.614868,212.271942 736.999634,208.809769 735.670715,208.446213 
	C732.426453,207.558716 728.626587,207.529526 725.375122,208.386688 
	C723.964905,208.758499 723.497925,212.249939 722.335693,214.162216 
	C721.374695,215.743332 720.021240,217.085953 718.841736,218.534271 
	C718.262451,218.166122 717.683167,217.797974 717.103882,217.429825 
	C719.449707,210.281693 721.785767,203.130356 724.146423,195.987122 
	C725.031494,193.309067 725.716248,190.517197 726.994751,188.036148 
	C727.671387,186.723083 729.357056,185.316849 730.717163,185.171844 
	C731.723938,185.064529 733.483093,186.711578 733.967468,187.945831 
	C735.841370,192.720352 737.338562,197.642700 739.081543,202.891266 
M726.499695,200.935516 
	C726.777283,204.763321 729.204834,205.678558 735.319763,203.812897 
	C733.796631,199.119339 732.275818,194.433029 730.279053,188.280106 
	C728.822876,193.241013 727.802917,196.715744 726.499695,200.935516 
z"/>
<path fill="#C6C6C6" opacity="1.000000" stroke="none" 
	d="
M668.237061,203.680725 
	C665.503418,202.397293 662.537292,201.820724 660.848694,200.035614 
	C658.756897,197.824219 656.486633,194.596237 656.519592,191.834000 
	C656.570984,187.529404 660.172729,184.623474 664.477600,184.273453 
	C667.442322,184.032394 670.597778,185.033752 673.516724,185.957886 
	C674.481323,186.263290 674.973328,188.061508 675.681396,189.177185 
	C674.512573,189.159622 673.329285,189.252472 672.178040,189.101044 
	C669.909424,188.802689 667.577026,187.837341 665.427429,188.167145 
	C663.842651,188.410278 661.649780,190.057495 661.296692,191.470947 
	C660.934753,192.919998 662.012146,195.475235 663.292114,196.428848 
	C665.779663,198.282150 668.755981,199.609314 671.700378,200.689209 
	C676.146545,202.319870 678.041199,205.769165 677.680237,209.922134 
	C677.289551,214.417877 674.304077,217.121353 669.596252,218.106476 
	C664.087708,219.259186 659.581055,217.676102 655.231750,212.873260 
	C656.600098,212.775482 658.012268,212.421280 659.325562,212.645645 
	C660.922058,212.918381 662.459229,213.619812 663.979553,214.240036 
	C667.546814,215.695343 670.812927,215.225128 672.524780,211.680954 
	C674.391846,207.815643 671.823853,205.498138 668.237061,203.680725 
z"/>
<path fill="#C6C6C6" opacity="1.000000" stroke="none" 
	d="
M883.638672,214.317841 
	C881.734070,208.504486 875.638794,205.473221 870.586975,208.303009 
	C868.763306,209.324554 868.432922,212.816116 867.102905,214.985474 
	C866.259521,216.361023 864.829285,217.376724 863.662231,218.553818 
	C863.141602,218.163406 862.620911,217.773010 862.100281,217.382599 
	C865.625061,207.144424 869.094910,196.886414 872.775635,186.704590 
	C873.080139,185.862106 874.935913,184.933090 875.850342,185.120499 
	C877.020447,185.360306 878.535767,186.492935 878.920105,187.586136 
	C882.373474,197.408859 885.611084,207.307419 888.942017,217.273178 
	C885.750244,218.730606 884.326233,217.532501 883.638672,214.317841 
M871.994080,199.572678 
	C871.632996,201.096298 871.271973,202.619934 870.814270,204.551086 
	C874.196045,204.551086 876.893555,204.551086 880.455505,204.551086 
	C878.797852,198.959579 877.302429,193.915192 875.547791,187.996460 
	C874.236084,192.216370 873.215393,195.500183 871.994080,199.572678 
z"/>
<path fill="#C5C5C5" opacity="1.000000" stroke="none" 
	d="
M455.481018,201.945969 
	C453.551880,202.038986 452.027435,202.240143 450.561462,202.031128 
	C445.610840,201.325241 443.830231,203.115204 443.943909,208.315369 
	C444.046143,212.989090 445.525024,214.659119 450.065430,214.162918 
	C452.531677,213.893387 455.069061,213.967331 457.540039,214.220947 
	C458.373291,214.306488 459.100800,215.422668 459.876648,216.067841 
	C459.102386,216.707352 458.343292,217.878433 457.551361,217.901062 
	C451.942902,218.061432 446.327698,217.986374 440.384644,217.986374 
	C440.384644,206.880859 440.384644,196.323135 440.384644,185.203857 
	C446.686707,184.931717 452.835144,184.546356 458.934387,185.340607 
	C458.949921,186.060623 458.965485,186.780624 458.981018,187.500641 
	C454.582123,187.500641 450.183197,187.500641 445.731476,187.500641 
	C445.194427,189.468124 444.846588,190.535202 444.614410,191.626892 
	C443.243652,198.072449 443.924133,198.917542 450.419891,198.939056 
	C451.917603,198.944031 453.498779,198.687149 454.872986,199.105072 
	C455.446350,199.279449 455.579285,200.902039 455.481018,201.945969 
z"/>
<path fill="#C3C3C3" opacity="1.000000" stroke="none" 
	d="
M554.037476,207.046570 
	C554.044800,214.873611 554.045410,214.821045 561.334412,214.908859 
	C564.503784,214.947021 567.669861,215.251312 570.837463,215.434738 
	C570.798889,216.074158 570.760315,216.713593 570.721741,217.353027 
	C564.117493,217.353027 557.513306,217.353027 550.444214,217.353027 
	C550.444214,207.038574 550.444214,196.367737 550.444214,185.505844 
	C556.922180,185.505844 563.334351,185.505844 569.746582,185.505844 
	C569.807861,186.153717 569.869141,186.801575 569.930420,187.449448 
	C567.497009,187.653244 565.066956,187.942322 562.629272,188.037735 
	C560.010193,188.140228 557.383911,188.060852 554.406128,188.060852 
	C554.406128,191.787201 554.406128,195.000443 554.406128,198.983795 
	C558.891479,198.983795 563.244751,198.983795 567.598022,198.983795 
	C567.741882,199.498672 567.885681,200.013535 568.029480,200.528412 
	C567.150818,201.032883 566.304932,201.887054 565.387024,201.973083 
	C563.080017,202.189331 560.718384,202.264648 558.418884,202.019562 
	C554.805481,201.634445 553.567566,203.209290 554.037476,207.046570 
z"/>
<path fill="#0E0E0E" opacity="1.000000" stroke="none" 
	d="
M877.105591,70.626434 
	C877.104919,66.371162 877.104919,62.577526 877.104919,58.454010 
	C882.794189,58.454010 888.169434,58.454010 893.839966,58.454010 
	C893.839966,63.362309 893.839966,68.236351 893.839966,73.547676 
	C888.899475,73.547676 884.111511,73.657585 879.338684,73.437469 
	C878.560120,73.401566 877.848755,71.907944 877.105591,70.626434 
z"/>
<path fill="#C6C6C6" opacity="1.000000" stroke="none" 
	d="
M526.889709,195.187057 
	C528.633057,201.113464 530.292542,206.644501 532.371826,213.574631 
	C535.144165,204.457443 537.402710,196.636902 539.964966,188.917160 
	C540.514160,187.262390 542.163330,185.972672 543.305786,184.514771 
	C543.907043,184.893387 544.508301,185.272003 545.109558,185.650620 
	C542.793396,192.979065 540.476562,200.307327 538.161316,207.636078 
	C537.313293,210.320343 536.686829,213.106079 535.519043,215.642822 
	C535.033020,216.698547 533.387695,217.835144 532.285645,217.819244 
	C531.191345,217.803482 529.492126,216.599838 529.132385,215.549286 
	C526.015503,206.447845 523.098022,197.276611 520.268982,188.080704 
	C520.019775,187.270752 520.820862,186.137711 521.134155,185.154694 
	C522.192749,185.677170 523.835449,185.941742 524.201233,186.770142 
	C525.330994,189.328491 525.973877,192.101852 526.889709,195.187057 
z"/>
<path fill="#C4C4C4" opacity="1.000000" stroke="none" 
	d="
M843.978210,205.212982 
	C843.973328,208.157043 843.973328,210.638367 843.973328,214.008957 
	C848.886780,214.366486 853.558411,214.706421 859.288391,215.123383 
	C858.401978,216.176376 857.674683,217.825104 856.879150,217.858765 
	C851.445190,218.088654 845.996887,217.979233 840.228516,217.979233 
	C840.228516,206.857971 840.228516,196.303116 840.228516,185.130325 
	C846.547852,184.994980 852.705750,184.541458 858.811401,185.327805 
	C858.829956,186.065781 858.848511,186.803772 858.867065,187.541748 
	C854.145752,187.541748 849.424438,187.541748 844.345032,187.541748 
	C844.345032,191.769653 844.345032,194.984787 844.345032,198.590652 
	C848.238586,198.844940 852.047974,199.093719 855.857422,199.342499 
	C855.903687,200.035950 855.950012,200.729401 855.996338,201.422852 
	C853.727722,201.635880 851.446838,201.763184 849.194214,202.087524 
	C847.190186,202.376038 844.138000,200.791824 843.978210,205.212982 
z"/>
<path fill="#C9C9C9" opacity="1.000000" stroke="none" 
	d="
M779.052612,188.078217 
	C777.125305,187.881958 775.648926,187.686478 773.548401,187.408371 
	C776.970398,184.225449 795.339783,184.074112 799.807190,187.297668 
	C796.932129,187.630203 794.981567,188.144577 793.075867,188.012497 
	C789.731445,187.780670 788.782959,189.158432 788.863770,192.354691 
	C789.048096,199.656403 789.040283,206.970276 788.794312,214.268555 
	C788.751892,215.528473 787.153381,216.735977 786.273621,217.967682 
	C785.532349,216.765381 784.228760,215.597931 784.151733,214.354462 
	C783.885193,210.053421 784.044983,205.725891 784.043945,201.408447 
	C784.042969,197.269821 784.043762,193.131210 784.043762,188.512741 
	C782.341492,188.350128 780.922546,188.214569 779.052612,188.078217 
z"/>
<path fill="#C4C4C4" opacity="1.000000" stroke="none" 
	d="
M626.007385,193.046539 
	C626.079407,195.139572 626.151611,196.769287 626.226074,198.449341 
	C630.650208,199.128906 634.820740,199.769516 638.991211,200.410126 
	C638.941772,201.151733 638.892334,201.893326 638.842957,202.634933 
	C634.756775,202.844849 630.670654,203.054779 625.999390,203.294754 
	C625.999390,207.358414 626.123108,211.148102 625.917542,214.919861 
	C625.862061,215.938187 624.808228,216.902084 624.212585,217.890961 
	C623.458801,216.877609 622.068115,215.875305 622.050354,214.849258 
	C621.883484,205.202805 621.951294,195.552292 621.951294,186.008133 
	C627.639282,184.065613 638.529724,184.570541 642.074585,188.071991 
	C637.329590,188.071991 633.842346,188.288528 630.394592,188.012421 
	C626.792847,187.723984 625.517822,189.184723 626.007385,193.046539 
z"/>
<path fill="#C2C2C2" opacity="1.000000" stroke="none" 
	d="
M395.789551,184.951019 
	C397.831207,185.192566 399.401947,185.434189 400.972687,185.675827 
	C400.958191,186.284271 400.943665,186.892715 400.929169,187.501144 
	C397.861206,187.804199 394.793274,188.107239 391.002838,188.481644 
	C391.002838,196.098648 391.003326,203.667435 391.002380,211.236221 
	C391.002228,212.563599 391.259247,213.965607 390.910492,215.194992 
	C390.625488,216.199661 389.614197,216.998291 388.924866,217.888245 
	C388.267853,216.957825 387.064331,216.040680 387.041351,215.094864 
	C386.876129,208.295929 386.950439,201.491180 386.948975,194.688278 
	C386.948547,192.731216 386.948914,190.774139 386.948914,188.549179 
	C383.345001,188.142303 380.178894,187.784851 377.012787,187.427414 
	C377.032532,186.601974 377.052307,185.776550 377.072083,184.951111 
	C383.154266,184.951111 389.236420,184.951111 395.789551,184.951019 
z"/>
<path fill="#C4C4C4" opacity="1.000000" stroke="none" 
	d="
M823.998535,218.004196 
	C820.896790,218.004074 818.278809,218.004074 815.013306,218.004074 
	C815.013306,207.384827 814.970154,197.300964 815.103577,187.219421 
	C815.113220,186.494156 816.411743,185.785950 817.110962,185.069824 
	C817.747131,186.023697 818.909546,186.964066 818.934448,187.933640 
	C819.100647,194.414749 819.024597,200.902054 819.026794,207.387344 
	C819.027466,209.352051 819.026855,211.316757 819.026855,213.042618 
	C823.787354,216.044937 830.047974,211.505157 833.856689,216.101685 
	C833.781860,216.735886 833.706970,217.370102 833.632080,218.004318 
	C830.582092,218.004318 827.532166,218.004318 823.998535,218.004196 
z"/>
<path fill="#CCCCCC" opacity="1.000000" stroke="none" 
	d="
M960.464722,217.280914 
	C957.569214,218.512024 956.022583,217.979141 956.044189,214.803452 
	C956.104187,205.979492 955.974304,197.152786 956.176819,188.333069 
	C956.202881,187.196320 957.748779,186.094452 958.590698,184.976395 
	C959.378967,186.144608 960.835510,187.304703 960.849854,188.482315 
	C960.965088,197.964157 960.808655,207.449265 960.464722,217.280914 
z"/>
<path fill="#CCCCCC" opacity="1.000000" stroke="none" 
	d="
M510.535919,217.250336 
	C510.201935,207.410599 510.047852,197.924759 510.169067,188.442444 
	C510.183990,187.275558 511.669373,186.127441 512.473328,184.970612 
	C513.300049,186.102127 514.816895,187.217621 514.843628,188.367706 
	C515.044556,197.020981 514.888855,205.681778 514.984436,214.338669 
	C515.019348,217.495316 513.929260,218.735489 510.535919,217.250336 
z"/>
<path fill="#FEFEFE" opacity="1.000000" stroke="none" 
	d="
M610.006714,200.129623 
	C609.390747,203.608047 609.537903,207.171661 607.928894,209.544434 
	C606.290161,211.961090 602.730591,214.832382 600.361816,214.551804 
	C597.404175,214.201431 593.438477,211.366714 592.375061,208.641785 
	C590.848694,204.730850 590.831055,199.837402 591.499573,195.571869 
	C592.198975,191.109116 595.225281,187.771622 600.505310,188.005768 
	C605.248779,188.216141 608.128662,190.758347 609.222473,195.329559 
	C609.565613,196.763626 609.744873,198.236908 610.006714,200.129623 
z"/>
<path fill="#FDFDFD" opacity="1.000000" stroke="none" 
	d="
M763.002808,199.494995 
	C759.685852,199.838455 756.747070,200.004837 753.282898,200.200974 
	C753.176636,197.925308 753.061157,196.161224 753.020935,194.395432 
	C752.979614,192.579422 753.011841,190.761734 753.011841,189.037308 
	C758.978455,187.050293 764.199707,187.754456 765.903137,190.902039 
	C767.804199,194.414673 766.666809,197.243988 763.002808,199.494995 
z"/>
<path fill="#FBFBFB" opacity="1.000000" stroke="none" 
	d="
M898.067993,197.569611 
	C898.055359,194.339371 898.055359,191.554077 898.055359,188.118317 
	C901.236450,188.118317 904.217896,187.453430 906.653809,188.320724 
	C908.744263,189.065018 911.210571,191.311371 911.718079,193.341568 
	C912.472656,196.360428 910.719055,199.426132 907.192505,199.876404 
	C904.093018,200.272141 900.037415,203.708633 898.067993,197.569611 
z"/>
<path fill="#FAFAFA" opacity="1.000000" stroke="none" 
	d="
M726.641296,200.562988 
	C727.802917,196.715744 728.822876,193.241013 730.279053,188.280106 
	C732.275818,194.433029 733.796631,199.119339 735.319763,203.812897 
	C729.204834,205.678558 726.777283,204.763321 726.641296,200.562988 
z"/>
<path fill="#F9F9F9" opacity="1.000000" stroke="none" 
	d="
M872.094360,199.178345 
	C873.215393,195.500183 874.236084,192.216370 875.547791,187.996460 
	C877.302429,193.915192 878.797852,198.959579 880.455505,204.551086 
	C876.893555,204.551086 874.196045,204.551086 870.814270,204.551086 
	C871.271973,202.619934 871.632996,201.096298 872.094360,199.178345 
z"/>
</svg>